<?xml version="1.0" standalone="no"?>
<!DOCTYPE svg PUBLIC "-//W3C//DTD SVG 20010904//EN"
 "http://www.w3.org/TR/2001/REC-SVG-20010904/DTD/svg10.dtd">
<svg version="1.0" xmlns="http://www.w3.org/2000/svg"
 width="350.000000pt" height="350.000000pt" viewBox="0 0 350.000000 350.000000"
 preserveAspectRatio="xMidYMid meet">
<g transform="translate(0.000000,350.000000) scale(0.100000,-0.100000)"
fill="#000000" stroke="none">
<path d="M2301 3459 c-90 -17 -169 -95 -191 -190 -15 -62 -8 -122 22 -186 39
-86 300 -326 411 -379 47 -22 72 -12 197 82 123 92 247 216 285 285 26 47 30
64 30 134 0 62 -5 89 -22 120 -46 86 -126 136 -218 137 -65 1 -112 -21 -181
-85 l-54 -49 -55 51 c-78 74 -140 96 -224 80z"/>
<path d="M1205 3074 c-449 -70 -710 -358 -804 -887 -54 -301 -54 -631 0 -1047
61 -476 134 -738 253 -904 108 -152 227 -216 384 -208 36 2 47 19 38 57 -4 14
-60 105 -125 202 -66 98 -122 190 -126 204 -6 23 0 29 72 71 131 77 229 195
269 327 17 56 18 168 1 197 -7 12 -41 43 -75 70 -114 85 -211 220 -257 358
-24 71 -28 102 -36 294 -5 118 -6 218 -3 223 3 5 183 9 401 9 l396 0 98 97
c54 53 102 94 105 90 4 -4 0 -43 -9 -88 -9 -45 -14 -85 -11 -90 3 -5 44 -9 91
-9 l85 0 -5 -227 c-5 -251 -11 -285 -74 -404 -46 -89 -127 -185 -212 -253 -77
-62 -85 -77 -84 -156 3 -171 123 -357 285 -440 46 -24 68 -41 68 -53 0 -27
-34 -88 -138 -247 -52 -80 -102 -160 -111 -178 -15 -32 -15 -35 4 -48 39 -28
142 -21 223 16 110 51 213 178 283 352 128 313 215 1038 180 1488 -53 672
-281 1041 -716 1160 -65 18 -113 23 -250 25 -93 2 -183 1 -200 -1z"/>
</g>
</svg>
