<?xml version="1.0" encoding="utf-8"?>
<!-- Generator: Adobe Illustrator 16.0.4, SVG Export Plug-In . SVG Version: 6.00 Build 0)  -->
<!DOCTYPE svg PUBLIC "-//W3C//DTD SVG 1.1//EN" "http://www.w3.org/Graphics/SVG/1.1/DTD/svg11.dtd">
<svg version="1.1" id="Layer_1" xmlns="http://www.w3.org/2000/svg" xmlns:xlink="http://www.w3.org/1999/xlink" x="0px" y="0px"
	 width="293.2px" height="300px" viewBox="0 0 293.2 300" enable-background="new 0 0 293.2 300" xml:space="preserve">
<g>
	<path fill="#FFFFFF" d="M143.2,93.7c-8.5-7-21.3-10.5-38.4-10.5H65.4v136.9h22.4v-51.2H102c17.3,0,30.6-3.8,40-11.4
		c9.4-7.6,14-18.6,14-32.9C156,111,151.7,100.7,143.2,93.7z M124.9,144.1c-5.4,4-13.8,6-25.3,6H87.8V102h15.5
		c10.2,0,17.7,1.9,22.5,5.8c4.8,3.9,7.2,9.7,7.2,17.6C133,133.8,130.3,140.1,124.9,144.1z"/>
	<path fill="#FFFFFF" d="M293,126.8c-2.6-56-39.2-100.8-98.1-119.8C128.9-14.4,61.3,16.8,31.2,57C0.5,98-14.3,172,18.7,228.4
		c26.4,45,74,71.6,127.8,71.6c1,0,2,0,3.1,0c28.5-0.5,70.2-11.1,99.2-33v-21C218,269,177.9,280.5,149.2,281
		c-23.2,0.5-80.5-4.8-114.1-62.2C7.2,171.3,18.9,105,46.3,68.4C72.9,32.9,133.5,7,189.1,25c51.8,16.8,82.7,54.2,85,102.7
		c2,43.1-15.8,58.6-30.4,68c-13,8.3-28,9-34.1,9c-9.3,0-16.5-2.7-21.6-8.1c-5.1-5.4-7.8-13.1-8.1-23.2h69v-11.9
		c0-14.5-4-26-11.9-34.3c-7.9-8.3-18.7-12.5-32.4-12.5c-14.7,0-26.3,4.8-34.7,14.5c-8.4,9.7-12.6,23-12.6,39.9
		c0,16.5,4.5,29.4,13.6,38.8c9.1,9.4,21.6,14.9,37.7,14.9c7.1,0,14.3-1,19.8-2.1c4.9-0.9,22.1-5.8,34-16.1
		C281.7,187.7,294.8,166.7,293,126.8z M187.7,138c4.2-4.4,9.8-6.6,16.8-6.6c7,0,12.5,2.2,16.5,6.6c4,4.4,6.1,10.9,6.2,19.4h-47
		C180.9,148.9,183.5,142.4,187.7,138z"/>
</g>
</svg>
