<svg version="1" xmlns="http://www.w3.org/2000/svg" width="726.667" height="726.667" viewBox="0 0 545.000000 545.000000"><path d="M166.7 1.1c-9.7 2.2-21.2 11.1-25.6 19.7-2.5 5-5.1 14.4-5.1 18.8 0 3.1-.6 3.6-19.7 14.7-21.6 12.5-44.2 25.6-49.5 28.5-19.1 10.8-54.7 31.7-56.2 33-1 1-2.7 3.4-3.7 5.4-1.8 3.6-1.9 8.1-1.9 133.5 0 123.4.1 130 1.9 133.8 1.9 4.4 5.6 7.5 14.1 12.2 3 1.7 19.7 11.3 37 21.3 17.3 10.1 33.5 19.4 36 20.8 2.5 1.4 12.8 7.3 23 13.2 10.2 5.9 20.3 11.8 22.5 13 2.2 1.2 7.8 4.5 12.5 7.3 4.7 2.7 10.5 6.1 13 7.5 6.1 3.4 27 15.4 40.9 23.6 6.2 3.6 11.6 6.6 11.9 6.6.3 0 1.3.6 2.1 1.4.9.7 4.8 3.1 8.8 5.1 7.9 4.1 13.9 4.8 19.1 2.1 3.4-1.7 9.1-8 9.3-10.1.1-.8.3-2 .4-2.5.1-.6.3-53.5.4-117.8l.1-116.7 29 .1c26 0 29.3.2 30.8 1.8 1.5 1.4 1.7 4 1.8 18.4v16.7l-4.7 2.7c-23.9 13.8-10 50.5 17 44.7 9.9-2.1 17.7-10.9 18.8-21.2.9-9.2-3.5-18-11.6-23.2l-3.7-2.2.1-16.4c.1-17.5.9-20.8 4.8-21 1.2-.1 15.5-.2 31.7-.4 34.2-.2 31.4-.1 33.4-2.1 3.7-3.6.1-9.4-5.7-9.4-6.3 0-6.7-1.4-6.7-21.6v-17.9l2.8-1.3c7.7-3.3 13.1-12.2 13.2-21.3 0-14.1-10.7-24.5-25.1-24.3-17.1.2-28.3 19.3-20.4 34.7 2.5 4.9 9.7 11.7 12.3 11.7.9 0 1.2 5.2 1.2 18.3 0 16.9-.2 18.5-1.9 20.1-1.8 1.6-5.4 1.8-42.2 1.8-25.7 0-40.4-.4-40.8-1-.3-.6-.6-39.4-.6-86.4V91.5l2.3-3.7c4.1-6.7 11.2-10 18.4-8.8 2 .4 11.9 5.4 22 11.2 10 5.8 25.5 14.8 34.3 19.8 8.8 5.1 17.4 10 19 11 41.8 23.9 82.5 47.7 84.3 49.4 6 5.4 5.6-2.2 5.7 119 .1 103.1 0 111.1-1.7 114.5-.9 2-2.3 4.3-3 5.2-1.1 1.4-16.7 10.8-29.8 18.1-2.5 1.4-11.5 6.6-20 11.5-24.6 14.3-54.3 31.4-56.9 32.9-2.1 1.1-2.8 1-4.9-.7-1.4-1.1-5.7-2.9-9.5-4.1-38.9-11.8-68.8 35.6-41.1 65.2 8.5 9.1 18.1 13 30.8 12.6 6.8-.2 9.5-.8 14.9-3.4 14-6.5 23.7-21.3 23.7-36.2 0-2.6 1.1-3.5 14.3-11.1 7.8-4.5 26.8-15.5 42.2-24.4 15.4-8.9 30-17.3 32.5-18.7 22.7-12.7 35.9-21 38.5-24.3l3-3.7.3-131.4c.2-129.5.2-131.5-1.8-135.3-2.4-4.7-4.4-6.2-23-16.9-19-11-19.4-11.2-34.5-20-7.1-4.1-14.3-8.3-16-9.2-1.6-.9-17.6-10.1-35.5-20.5-17.9-10.3-34.1-19.7-36-20.7l-19.5-11.3c-8.8-5.1-17.8-10.3-20-11.5-2.2-1.2-12.4-7.1-22.7-13.1-20.2-11.8-25-13.5-31.3-11.3-4.9 1.7-10.3 7-11.5 11.4-.6 2.2-1 46.7-1 120.2V270h-21.7c-17.7-.1-22.2-.3-23.8-1.6-1.8-1.3-1.9-2.7-2-19.6v-18.1l3.3-1.9c17-9.5 16.9-34.1-.1-43-5.8-3.1-16.5-3.1-22.3-.1-8.2 4.3-12.8 11.9-12.8 21.3-.1 10.1 4.4 17.3 13.9 22.6 1.9 1 2 2.2 2.1 18.4 0 15.4-.2 17.4-1.9 19.6l-1.8 2.4h-39.3c-36.8 0-39.4.1-40.9 1.8-2.1 2.3-2.2 5.6-.1 7.6 1.8 1.8 1 1.7 13.7 1.9 13.2.3 12.7-.5 12.7 20.8v16.7l-3.1 1.2c-3.8 1.6-9.2 6.8-11.6 11.2-1.2 2.3-1.8 5.5-1.8 10.8 0 6.4.4 8.2 2.8 12.2 8.5 14.5 28.3 16.3 39.2 3.5 10.1-11.8 6.4-30.8-7.2-37-2.3-1-2.3-1.3-2.3-18.1 0-9.4.4-17.6.8-18.2 1.8-2.8 5.8-3.1 37.7-3l33 .1v84c.1 46.2-.3 85.6-.8 87.5-2 7.9-9.2 13.3-17.3 13.2-5.4-.1-3.5.8-45.9-23.7-19.2-11.1-52.8-30.5-74.5-43-21.7-12.5-40.6-23.7-41.8-24.9-6-5.4-5.6 2.2-5.8-118.1 0-60.5.3-111.3.7-112.9 1.1-3.8 4.9-9.2 7.4-10.5 1.1-.6 4.3-2.4 7-4 2.8-1.7 6.6-3.9 8.5-5 1.9-1 22.9-13.1 46.6-26.8l43-24.9 6.5 3.2c30.5 15.4 64.6-11.5 57-44.9-2.9-12.6-12.9-23.7-25.5-28.4-4.8-1.8-17.4-2.4-22.9-1.2zm19.9 16.7c11.8 6.1 16.9 18.1 12.9 30.2-2.4 7.2-8.6 13.4-15.6 15.4-7.2 2.2-11.5 2-17.5-.8-15.8-7.4-19.8-26.3-8.1-39.1 7.1-7.9 19.3-10.3 28.3-5.7zm207.2 170.9c4.2 3 7.3 10 6.6 14.8-.7 4.8-1.5 6.3-4.7 9.3-3.6 3.4-9.1 5-13.9 4.2-4.7-.9-10.3-5.9-11.8-10.6-2.5-7.4 1.7-16.2 9-19.3 3.6-1.6 11.7-.7 14.8 1.6zm-182 6c6.5 4.8 8 14.1 3.5 21.1-8.2 12.6-27.5 7.3-28.2-7.7-.2-6 1.6-10.1 6-13.2 5.8-4.1 13.4-4.2 18.7-.2zm123.6 128.6c3.5 2.4 6.8 8.3 6.9 12.5.2 9.2-8.1 16.9-17 15.9-10.9-1.2-17.4-12.4-12.8-22.1 3.9-8.3 15.2-11.3 22.9-6.3zm-183.1 5.4c1.8 1 4.2 3.9 5.5 6.3 4.9 9.6 0 19.7-10.6 22.1-4.4 1.1-5.4.9-9.3-1-6-3-9.1-7.7-9.2-14-.1-12.2 12.8-19.6 23.6-13.4zm198.5 154.2c19.1 9.7 17.6 37.5-2.4 45-9.2 3.4-19 1.3-26-5.7-12.7-12.8-7.8-34.6 9.3-40.8 5.1-1.8 14-1.1 19.1 1.5z"/></svg>